<svg width="102" height="102" viewBox="0 0 102 102" fill="none" xmlns="http://www.w3.org/2000/svg">
<circle cx="51" cy="51" r="51" fill="black"/>
<path d="M83.0647 63.1232H78.9866C80.2222 61.6991 80.9026 59.877 80.9026 57.9916C80.9026 56.1061 80.2222 54.284 78.9866 52.86H83.0647C84.1231 52.904 85.1795 52.7335 86.1703 52.3589C87.1612 51.9842 88.0661 51.413 88.8305 50.6798C89.595 49.9464 90.2033 49.0661 90.6189 48.0917C91.0344 47.1173 91.2485 46.0689 91.2485 45.0096C91.2485 43.9502 91.0344 42.9018 90.6189 41.9274C90.2033 40.953 89.595 40.0727 88.8305 39.3393C88.0661 38.6061 87.1612 38.0349 86.1703 37.6602C85.1795 37.2856 84.1231 37.1151 83.0647 37.1592H78.9866C79.9725 36.0221 80.6106 34.6252 80.8244 33.1354C81.0384 31.6455 80.8191 30.1256 80.1929 28.757C79.5666 27.3884 78.5597 26.2288 77.2925 25.4168C76.0253 24.6047 74.5512 24.1744 73.0461 24.1771H13.4375C13.077 24.1771 12.7312 24.3204 12.4763 24.5753C12.2213 24.8302 12.0781 25.176 12.0781 25.5365V25.8356C12.0652 25.9303 12.0652 26.0263 12.0781 26.121C12.0704 26.1978 12.0704 26.2753 12.0781 26.3521C12.1233 26.4277 12.1732 26.5004 12.2276 26.5696C12.2276 26.6376 12.3228 26.7192 12.3772 26.7735C12.4374 26.8191 12.501 26.86 12.5675 26.8959C12.645 26.9628 12.7321 27.0177 12.8258 27.059C13.7528 27.4958 14.5272 28.201 15.0484 29.0834C15.5695 29.9658 15.8134 30.9845 15.7484 32.0071C15.8144 33.0318 15.571 34.0526 15.0499 34.9373C14.5288 35.822 13.7539 36.5298 12.8258 36.9689C12.7395 37.0106 12.6576 37.0606 12.5811 37.1184C12.5081 37.1556 12.4397 37.2013 12.3772 37.2543C12.3772 37.2543 12.282 37.3903 12.2276 37.4582C12.1702 37.5252 12.12 37.5981 12.0781 37.6757C12.0719 37.748 12.0719 37.8209 12.0781 37.8932C12.064 37.9925 12.064 38.0931 12.0781 38.1923V38.4506C12.0781 38.8111 12.2213 39.1569 12.4763 39.4118C12.7312 39.6667 13.077 39.8099 13.4375 39.8099H22.722C22.8051 39.8649 22.8913 39.9148 22.9803 39.9595C23.9074 40.3962 24.6817 41.1015 25.2029 41.9839C25.7241 42.8662 25.9679 43.8849 25.903 44.9076C25.9689 45.9323 25.7256 46.9531 25.2044 47.8377C24.6833 48.7224 23.9085 49.4302 22.9803 49.8693C22.894 49.9111 22.812 49.9611 22.7356 50.0189H13.4375C13.077 50.0189 12.7312 50.1621 12.4763 50.417C12.2213 50.6719 12.0781 51.0177 12.0781 51.3782V51.6365C12.0651 51.7357 12.0651 51.8363 12.0781 51.9356C12.0719 52.0079 12.0719 52.0808 12.0781 52.1531C12.12 52.2307 12.1702 52.3036 12.2276 52.3706C12.2276 52.4385 12.3228 52.5201 12.3772 52.5745C12.4397 52.6275 12.5081 52.6732 12.5811 52.7104C12.6576 52.7682 12.7395 52.8182 12.8258 52.86C13.7539 53.299 14.5288 54.0069 15.0499 54.8915C15.571 55.7762 15.8144 56.797 15.7484 57.8217C15.8134 58.8443 15.5695 59.863 15.0484 60.7454C14.5272 61.6278 13.7528 62.333 12.8258 62.7698C12.7395 62.8115 12.6576 62.8615 12.5811 62.9193C12.5811 62.9193 12.4315 63.0009 12.3772 63.0553C12.3228 63.1096 12.282 63.1912 12.2276 63.2592C12.1702 63.3262 12.12 63.399 12.0781 63.4767C12.0719 63.549 12.0719 63.6219 12.0781 63.6942C12.0651 63.7934 12.0651 63.894 12.0781 63.9932V64.2515C12.0781 64.612 12.2213 64.9578 12.4763 65.2127C12.7312 65.4676 13.077 65.6109 13.4375 65.6109H22.722C22.8051 65.6658 22.8913 65.7157 22.9803 65.7604C23.9085 66.1995 24.6833 66.9073 25.2044 67.792C25.7256 68.6767 25.9689 69.6974 25.903 70.7221C26.0352 71.7887 25.8279 72.8698 25.3106 73.8117C24.7932 74.7538 23.9921 75.5088 23.0211 75.9693C22.9274 76.0107 22.8403 76.0656 22.7628 76.1324C22.6963 76.1683 22.6327 76.2093 22.5725 76.2548C22.5725 76.2548 22.4773 76.3907 22.423 76.4587C22.3686 76.528 22.3186 76.6006 22.2734 76.6762C22.2657 76.753 22.2657 76.8305 22.2734 76.9073C22.2605 77.002 22.2605 77.098 22.2734 77.1928V77.4918C22.2734 77.8523 22.4166 78.1982 22.6716 78.453C22.9265 78.7079 23.2723 78.8512 23.6328 78.8512H83.0647C84.1231 78.8952 85.1795 78.7248 86.1703 78.3501C87.1612 77.9755 88.0661 77.4043 88.8305 76.671C89.595 75.9377 90.2033 75.0573 90.6189 74.0829C91.0344 73.1085 91.2485 72.0602 91.2485 71.0008C91.2485 69.9415 91.0344 68.8931 90.6189 67.9187C90.2033 66.9443 89.595 66.064 88.8305 65.3306C88.0661 64.5973 87.1612 64.0261 86.1703 63.6515C85.1795 63.2768 84.1231 63.1064 83.0647 63.1504V63.1232ZM78.1709 57.9984C78.1709 58.6725 78.0378 59.3401 77.7796 59.9627C77.5212 60.5854 77.1424 61.1509 76.665 61.627C76.1877 62.103 75.6212 62.4802 74.9979 62.737C74.3745 62.9938 73.7066 63.125 73.0325 63.1232H16.999C18.0599 61.6223 18.6296 59.8296 18.6296 57.9916C18.6296 56.1536 18.0599 54.3608 16.999 52.86H73.0325C74.3953 52.86 75.7023 53.4012 76.6658 54.3649C77.6295 55.3286 78.1709 56.6356 78.1709 57.9984ZM88.2031 45.0028C88.2031 45.6776 88.0702 46.3457 87.8119 46.9691C87.5537 47.5926 87.1753 48.1591 86.698 48.6362C86.2209 49.1134 85.6544 49.4918 85.031 49.7501C84.4076 50.0083 83.7395 50.1412 83.0647 50.1412H27.0312C28.0921 48.6403 28.6618 46.8476 28.6618 45.0096C28.6618 43.1715 28.0921 41.3788 27.0312 39.8779H83.0647C83.7388 39.8762 84.4067 40.0073 85.0301 40.2641C85.6533 40.5209 86.2199 40.8981 86.6972 41.3742C87.1746 41.8502 87.5533 42.4157 87.8118 43.0385C88.07 43.6611 88.2031 44.3286 88.2031 45.0028ZM78.1709 32.0207C78.1709 33.3835 77.6295 34.6905 76.6658 35.6542C75.7023 36.6179 74.3953 37.1592 73.0325 37.1592H16.999C18.0599 35.6583 18.6296 33.8655 18.6296 32.0275C18.6296 30.1895 18.0599 28.3968 16.999 26.8959H73.0325C73.7066 26.8941 74.3745 27.0253 74.9979 27.2821C75.6212 27.5389 76.1877 27.9161 76.665 28.3922C77.1424 28.8682 77.5212 29.4337 77.7796 30.0564C78.0378 30.679 78.1709 31.3466 78.1709 32.0207ZM83.0647 76.1053H27.0312C28.0921 74.6044 28.6618 72.8116 28.6618 70.9736C28.6618 69.1356 28.0921 67.3429 27.0312 65.842H83.0647C83.7608 65.8061 84.457 65.9123 85.1107 66.154C85.7645 66.3957 86.3623 66.7679 86.8677 67.248C87.3731 67.728 87.7755 68.3058 88.0505 68.9464C88.3255 69.5868 88.4672 70.2765 88.4672 70.9736C88.4672 71.6707 88.3255 72.3605 88.0505 73.0009C87.7755 73.6414 87.3731 74.2193 86.8677 74.6993C86.3623 75.1794 85.7645 75.5516 85.1107 75.7933C84.457 76.035 83.7608 76.1411 83.0647 76.1053Z" fill="#FF3B30"/>
</svg>
