<svg width="102" height="135" viewBox="0 0 102 135" fill="none" xmlns="http://www.w3.org/2000/svg">
<circle cx="51" cy="71" r="51" fill="black"/>
<path d="M25.8105 36H55.2105C65.2772 36 72.7772 37.4667 77.7106 40.4C82.6439 43.2667 85.1106 48.4333 85.1106 55.9C85.1106 64.1667 82.1105 69.8667 76.1105 73C70.5105 75.8667 62.6772 77.3 52.6105 77.3H51.8105V104.1H64.3105V106H25.8105V104.1H32.3105V37.9H25.8105V36ZM51.8105 37.9V75.4H53.9105C57.9105 75.4 60.6772 74.0333 62.2105 71.3C63.7439 68.5667 64.5105 64.1333 64.5105 58V53.2C64.5105 47.5333 63.7772 43.5667 62.3105 41.3C60.9105 39.0333 58.3105 37.9 54.5105 37.9H51.8105Z" fill="#FF3B30"/>
</svg>
