<svg width="245" height="49" viewBox="0 0 245 49" fill="none" xmlns="http://www.w3.org/2000/svg">
<path d="M43.54 12.8H54.124C57.748 12.8 60.448 13.328 62.224 14.384C64 15.416 64.888 17.276 64.888 19.964C64.888 22.94 63.808 24.992 61.648 26.12C59.632 27.152 56.812 27.668 53.188 27.668H52.9V37.316H57.4V38H43.54V37.316H45.88V13.484H43.54V12.8ZM52.9 13.484V26.984H53.656C55.096 26.984 56.092 26.492 56.644 25.508C57.196 24.524 57.472 22.928 57.472 20.72V18.992C57.472 16.952 57.208 15.524 56.68 14.708C56.176 13.892 55.24 13.484 53.872 13.484H52.9ZM87.0606 38H78.8526L78.4566 35.372C78.0726 36.332 77.4966 37.076 76.7286 37.604C75.9846 38.108 74.8686 38.36 73.3806 38.36C69.6606 38.36 67.8006 36.356 67.8006 32.348V21.512H65.7846V20.864H74.4966V33.212C74.4966 34.652 74.5926 35.6 74.7846 36.056C75.0006 36.512 75.4086 36.74 76.0086 36.74C76.6326 36.74 77.1846 36.368 77.6646 35.624C78.1446 34.88 78.3846 33.848 78.3846 32.528V21.512H76.7286V20.864H85.0806V37.352H87.0606V38ZM88.6255 38.36V31.916H89.0575C89.6815 34.004 90.5215 35.468 91.5775 36.308C92.6335 37.148 93.9535 37.568 95.5375 37.568C97.9855 37.568 99.2095 36.788 99.2095 35.228C99.2095 34.556 98.9095 34.052 98.3095 33.716C97.3735 33.188 96.1735 32.78 94.7095 32.492C93.0775 32.06 91.7095 31.484 90.6055 30.764C89.2855 29.9 88.6255 28.532 88.6255 26.66C88.6255 24.788 89.2015 23.3 90.3535 22.196C91.5055 21.068 93.0415 20.504 94.9615 20.504C96.1375 20.504 97.3495 20.78 98.5975 21.332C99.0535 21.524 99.4015 21.62 99.6415 21.62C99.8815 21.62 100.086 21.536 100.254 21.368C100.422 21.2 100.626 20.888 100.866 20.432H101.262V25.94H100.83C99.6055 22.82 97.7095 21.26 95.1415 21.26C94.0135 21.26 93.1735 21.464 92.6215 21.872C92.0695 22.256 91.7935 22.748 91.7935 23.348C91.7935 23.708 91.8775 23.996 92.0455 24.212C92.2135 24.404 92.3455 24.548 92.4415 24.644C92.5375 24.74 92.6935 24.848 92.9095 24.968C93.1255 25.064 93.3055 25.148 93.4495 25.22C93.5935 25.268 93.8095 25.34 94.0975 25.436C94.4095 25.532 94.6375 25.592 94.7815 25.616C96.4135 26.024 97.5895 26.384 98.3095 26.696C99.0295 26.984 99.7135 27.344 100.362 27.776C101.682 28.688 102.342 30.164 102.342 32.204C102.342 34.22 101.742 35.756 100.542 36.812C99.3415 37.844 97.6975 38.36 95.6095 38.36C94.1215 38.36 92.6815 38.012 91.2895 37.316C91.0015 37.124 90.7735 37.028 90.6055 37.028C90.0775 37.028 89.5615 37.472 89.0575 38.36H88.6255ZM104.855 32.852V21.512H102.875V20.864H104.855V16.22L111.551 14.564V20.864H116.231V21.512H111.551V33.644C111.551 34.772 111.659 35.6 111.875 36.128C112.115 36.656 112.595 36.92 113.315 36.92C114.035 36.92 114.659 36.56 115.187 35.84C115.739 35.12 116.099 34.136 116.267 32.888L116.879 32.96C116.687 34.616 116.159 35.936 115.295 36.92C114.431 37.88 113.003 38.36 111.011 38.36C109.019 38.36 107.495 37.964 106.439 37.172C105.383 36.38 104.855 34.94 104.855 32.852ZM125.863 29.54H126.907V26.768C126.907 24.488 126.775 22.964 126.511 22.196C126.271 21.404 125.791 21.008 125.071 21.008C124.639 21.008 124.243 21.128 123.883 21.368C123.547 21.584 123.379 21.896 123.379 22.304C123.379 22.688 123.451 23.084 123.595 23.492H124.495C124.687 23.996 124.783 24.608 124.783 25.328C124.783 26.024 124.483 26.636 123.883 27.164C123.283 27.668 122.527 27.92 121.615 27.92C119.551 27.92 118.519 26.924 118.519 24.932C118.519 21.98 121.027 20.504 126.043 20.504C128.899 20.504 130.867 20.996 131.947 21.98C133.051 22.94 133.603 24.716 133.603 27.308V34.616C133.603 35.864 133.951 36.488 134.647 36.488C135.463 36.488 135.943 35.252 136.087 32.78L136.627 32.816C136.531 34.928 136.135 36.38 135.439 37.172C134.743 37.964 133.603 38.36 132.019 38.36C129.139 38.36 127.483 37.472 127.051 35.696C126.739 36.608 126.271 37.28 125.647 37.712C125.023 38.144 124.111 38.36 122.911 38.36C119.359 38.36 117.583 36.908 117.583 34.004C117.583 32.3 118.255 31.136 119.599 30.512C120.967 29.864 123.055 29.54 125.863 29.54ZM124.423 33.968C124.423 35.216 124.483 36.02 124.603 36.38C124.747 36.74 124.999 36.92 125.359 36.92C125.743 36.92 126.091 36.62 126.403 36.02C126.739 35.396 126.907 34.544 126.907 33.464V30.116H126.655C125.167 30.116 124.423 31.208 124.423 33.392V33.968ZM148.753 38V37.352H150.409L146.341 29L145.657 29.18V37.352H147.313V38H136.981V37.352H138.961V11.648H136.837V11H145.657V28.46L146.233 28.244L154.333 21.512H150.949V20.864H158.041V21.512H155.521L151.237 25.148L157.465 37.352H158.761V38H148.753ZM172.985 37.64C174.161 37.64 174.905 37.424 175.217 36.992C175.553 36.56 175.721 35.828 175.721 34.796V27.812H173.417V27.02H183.785V27.812H182.381V37.964H181.841C181.409 37.364 180.797 37.064 180.005 37.064C179.669 37.064 178.661 37.28 176.981 37.712C175.325 38.144 173.909 38.36 172.733 38.36C168.821 38.36 165.785 37.304 163.625 35.192C161.489 33.08 160.421 29.912 160.421 25.688C160.421 21.44 161.537 18.164 163.769 15.86C166.025 13.556 169.049 12.404 172.841 12.404C174.305 12.404 175.769 12.596 177.233 12.98C178.721 13.34 179.585 13.52 179.825 13.52C180.065 13.52 180.245 13.472 180.365 13.376C180.485 13.256 180.617 13.064 180.761 12.8H181.157L181.445 20.612H180.797C179.621 18.284 178.433 16.46 177.233 15.14C176.057 13.796 174.737 13.124 173.273 13.124C169.601 13.124 167.765 16.712 167.765 23.888V26.732C167.765 30.332 168.209 33.056 169.097 34.904C170.009 36.728 171.305 37.64 172.985 37.64ZM185.321 11H193.997V24.176C194.381 23.072 194.969 22.184 195.761 21.512C196.553 20.84 197.753 20.504 199.361 20.504C203.081 20.504 204.941 22.508 204.941 26.516V37.352H206.957V38H196.769V37.352H198.245V25.652C198.245 24.212 198.149 23.288 197.957 22.88C197.765 22.448 197.417 22.232 196.913 22.232C196.145 22.232 195.461 22.736 194.861 23.744C194.285 24.752 193.997 25.976 193.997 27.416V37.352H195.545V38H185.321V37.352H187.301V11.648H185.321V11ZM216.145 29.54H217.189V26.768C217.189 24.488 217.057 22.964 216.793 22.196C216.553 21.404 216.073 21.008 215.353 21.008C214.921 21.008 214.525 21.128 214.165 21.368C213.829 21.584 213.661 21.896 213.661 22.304C213.661 22.688 213.733 23.084 213.877 23.492H214.777C214.969 23.996 215.065 24.608 215.065 25.328C215.065 26.024 214.765 26.636 214.165 27.164C213.565 27.668 212.809 27.92 211.897 27.92C209.833 27.92 208.801 26.924 208.801 24.932C208.801 21.98 211.309 20.504 216.325 20.504C219.181 20.504 221.149 20.996 222.229 21.98C223.333 22.94 223.885 24.716 223.885 27.308V34.616C223.885 35.864 224.233 36.488 224.929 36.488C225.745 36.488 226.225 35.252 226.369 32.78L226.909 32.816C226.813 34.928 226.417 36.38 225.721 37.172C225.025 37.964 223.885 38.36 222.301 38.36C219.421 38.36 217.765 37.472 217.333 35.696C217.021 36.608 216.553 37.28 215.929 37.712C215.305 38.144 214.393 38.36 213.193 38.36C209.641 38.36 207.865 36.908 207.865 34.004C207.865 32.3 208.537 31.136 209.881 30.512C211.249 29.864 213.337 29.54 216.145 29.54ZM214.705 33.968C214.705 35.216 214.765 36.02 214.885 36.38C215.029 36.74 215.281 36.92 215.641 36.92C216.025 36.92 216.373 36.62 216.685 36.02C217.021 35.396 217.189 34.544 217.189 33.464V30.116H216.937C215.449 30.116 214.705 31.208 214.705 33.392V33.968ZM239.286 21.872C238.398 21.872 237.618 22.448 236.946 23.6C236.274 24.752 235.938 26.12 235.938 27.704V37.352H238.494V38H227.262V37.352H229.242V21.512H227.262V20.864H235.938V24.32C236.25 23.096 236.85 22.16 237.738 21.512C238.626 20.84 239.634 20.504 240.762 20.504C241.89 20.504 242.802 20.828 243.498 21.476C244.218 22.1 244.578 23 244.578 24.176C244.578 25.328 244.314 26.216 243.786 26.84C243.258 27.464 242.442 27.776 241.338 27.776C240.258 27.776 239.454 27.416 238.926 26.696C238.422 25.976 238.362 24.98 238.746 23.708H240.042C240.642 22.484 240.39 21.872 239.286 21.872Z" fill="#FF3B30"/>
<path d="M37.1009 30.2448H35.0853C35.696 29.5409 36.0323 28.6404 36.0323 27.7085C36.0323 26.7766 35.696 25.876 35.0853 25.1721H37.1009C37.6241 25.1939 38.1462 25.1097 38.6359 24.9245C39.1256 24.7393 39.5729 24.457 39.9507 24.0946C40.3286 23.7321 40.6292 23.297 40.8346 22.8154C41.04 22.3338 41.1458 21.8157 41.1458 21.2921C41.1458 20.7685 41.04 20.2503 40.8346 19.7687C40.6292 19.2871 40.3286 18.852 39.9507 18.4895C39.5729 18.1271 39.1256 17.8448 38.6359 17.6596C38.1462 17.4745 37.6241 17.3902 37.1009 17.412H35.0853C35.5726 16.85 35.888 16.1595 35.9937 15.4232C36.0994 14.6869 35.9911 13.9356 35.6815 13.2592C35.372 12.5828 34.8743 12.0096 34.248 11.6083C33.6217 11.2069 32.8931 10.9942 32.1492 10.9956H2.68749C2.5093 10.9956 2.3384 11.0664 2.2124 11.1924C2.0864 11.3184 2.01561 11.4893 2.01561 11.6675V11.8153C2.00926 11.8621 2.00926 11.9095 2.01561 11.9564C2.0118 11.9943 2.0118 12.0326 2.01561 12.0706C2.03795 12.1079 2.06264 12.1439 2.08952 12.1781C2.08952 12.2117 2.13655 12.252 2.16342 12.2789C2.19321 12.3014 2.22465 12.3216 2.25749 12.3393C2.29581 12.3724 2.33883 12.3995 2.38514 12.42C2.84334 12.6358 3.22608 12.9844 3.48367 13.4205C3.74126 13.8566 3.86181 14.3601 3.82967 14.8656C3.86227 15.372 3.74199 15.8766 3.48442 16.3138C3.22685 16.7511 2.84388 17.1009 2.38514 17.3179C2.34252 17.3386 2.30201 17.3633 2.26421 17.3918C2.22813 17.4102 2.19431 17.4328 2.16342 17.459C2.16342 17.459 2.11639 17.5262 2.08952 17.5598C2.06112 17.5929 2.03635 17.6289 2.01561 17.6673C2.01256 17.703 2.01256 17.7391 2.01561 17.7748C2.00863 17.8238 2.00863 17.8736 2.01561 17.9226V18.0503C2.01561 18.2285 2.0864 18.3994 2.2124 18.5254C2.3384 18.6513 2.5093 18.7221 2.68749 18.7221H7.27641C7.31746 18.7493 7.36005 18.7739 7.40406 18.7961C7.86228 19.0119 8.24498 19.3605 8.50258 19.7966C8.76017 20.2327 8.88071 20.7362 8.84859 21.2417C8.88118 21.7481 8.76091 22.2526 8.50332 22.6899C8.24579 23.1272 7.86282 23.477 7.40406 23.694C7.3614 23.7146 7.32088 23.7394 7.28313 23.7679H2.68749C2.5093 23.7679 2.3384 23.8387 2.2124 23.9647C2.0864 24.0907 2.01561 24.2616 2.01561 24.4398V24.5675C2.00921 24.6165 2.00921 24.6662 2.01561 24.7153C2.01256 24.751 2.01256 24.787 2.01561 24.8228C2.03635 24.8611 2.06112 24.8971 2.08952 24.9303C2.08952 24.9639 2.13655 25.0042 2.16342 25.0311C2.19431 25.0573 2.22813 25.0798 2.26421 25.0982C2.30201 25.1268 2.34252 25.1515 2.38514 25.1721C2.84388 25.3892 3.22685 25.739 3.48442 26.1763C3.74199 26.6135 3.86227 27.118 3.82967 27.6245C3.86181 28.1299 3.74126 28.6334 3.48367 29.0696C3.22608 29.5057 2.84334 29.8542 2.38514 30.0701C2.34252 30.0907 2.30201 30.1155 2.26421 30.144C2.26421 30.144 2.1903 30.1843 2.16342 30.2112C2.13655 30.2381 2.11639 30.2784 2.08952 30.312C2.06112 30.3451 2.03635 30.3811 2.01561 30.4195C2.01256 30.4552 2.01256 30.4912 2.01561 30.527C2.00921 30.576 2.00921 30.6258 2.01561 30.6748V30.8025C2.01561 30.9806 2.0864 31.1516 2.2124 31.2775C2.3384 31.4035 2.5093 31.4743 2.68749 31.4743H7.27641C7.31746 31.5015 7.36005 31.5261 7.40406 31.5482C7.86282 31.7653 8.24579 32.1151 8.50332 32.5524C8.76091 32.9896 8.88118 33.4941 8.84859 34.0006C8.91397 34.5277 8.81151 35.0621 8.55579 35.5276C8.30007 35.9932 7.90414 36.3664 7.42422 36.594C7.37793 36.6144 7.33486 36.6416 7.29656 36.6746C7.26371 36.6924 7.23226 36.7126 7.2025 36.7351C7.2025 36.7351 7.15547 36.8023 7.12859 36.8359C7.10172 36.8702 7.07699 36.906 7.05469 36.9434C7.05086 36.9814 7.05086 37.0197 7.05469 37.0576C7.0483 37.1044 7.0483 37.1519 7.05469 37.1987V37.3465C7.05469 37.5247 7.12544 37.6956 7.25148 37.8216C7.37746 37.9476 7.54838 38.0184 7.72656 38.0184H37.1009C37.6241 38.0402 38.1462 37.9559 38.6359 37.7707C39.1256 37.5856 39.5729 37.3033 39.9507 36.9408C40.3286 36.5784 40.6292 36.1433 40.8346 35.6617C41.04 35.1801 41.1458 34.6619 41.1458 34.1383C41.1458 33.6147 41.04 33.0966 40.8346 32.615C40.6292 32.1334 40.3286 31.6983 39.9507 31.3358C39.5729 30.9734 39.1256 30.6911 38.6359 30.5059C38.1462 30.3207 37.6241 30.2365 37.1009 30.2582V30.2448ZM34.6822 27.7118C34.6822 28.045 34.6164 28.375 34.4888 28.6827C34.361 28.9905 34.1738 29.27 33.9379 29.5053C33.702 29.7406 33.422 29.927 33.1139 30.0539C32.8058 30.1808 32.4757 30.2457 32.1425 30.2448H4.4478C4.97216 29.503 5.25371 28.6169 5.25371 27.7085C5.25371 26.8 4.97216 25.914 4.4478 25.1721H32.1425C32.8161 25.1721 33.4621 25.4397 33.9383 25.916C34.4146 26.3923 34.6822 27.0383 34.6822 27.7118ZM39.6406 21.2887C39.6406 21.6222 39.5749 21.9525 39.4473 22.2606C39.3197 22.5688 39.1326 22.8487 38.8967 23.0846C38.6609 23.3204 38.3809 23.5074 38.0728 23.6351C37.7647 23.7627 37.4345 23.8284 37.1009 23.8284H9.40625C9.93058 23.0866 10.2122 22.2005 10.2122 21.2921C10.2122 20.3836 9.93058 19.4976 9.40625 18.7557H37.1009C37.4341 18.7549 37.7642 18.8197 38.0723 18.9466C38.3804 19.0735 38.6604 19.26 38.8963 19.4953C39.1323 19.7306 39.3195 20.0101 39.4472 20.3178C39.5748 20.6256 39.6406 20.9555 39.6406 21.2887ZM34.6822 14.8723C34.6822 15.5459 34.4146 16.1919 33.9383 16.6682C33.4621 17.1444 32.8161 17.412 32.1425 17.412H4.4478C4.97216 16.6702 5.25371 15.7841 5.25371 14.8757C5.25371 13.9672 4.97216 13.0811 4.4478 12.3393H32.1425C32.4757 12.3385 32.8058 12.4033 33.1139 12.5302C33.422 12.6571 33.702 12.8436 33.9379 13.0789C34.1738 13.3142 34.361 13.5937 34.4888 13.9014C34.6164 14.2092 34.6822 14.5391 34.6822 14.8723ZM37.1009 36.6612H9.40625C9.93058 35.9194 10.2122 35.0333 10.2122 34.1249C10.2122 33.2164 9.93058 32.3304 9.40625 31.5885H37.1009C37.445 31.5708 37.7891 31.6233 38.1122 31.7427C38.4353 31.8622 38.7308 32.0462 38.9806 32.2835C39.2304 32.5207 39.4293 32.8063 39.5652 33.1229C39.7011 33.4394 39.7712 33.7803 39.7712 34.1249C39.7712 34.4694 39.7011 34.8103 39.5652 35.1268C39.4293 35.4434 39.2304 35.729 38.9806 35.9663C38.7308 36.2036 38.4353 36.3876 38.1122 36.507C37.7891 36.6265 37.445 36.6789 37.1009 36.6612Z" fill="#FF3B30"/>
</svg>
