<svg width="1728" height="431" viewBox="0 0 1728 431" fill="none" xmlns="http://www.w3.org/2000/svg">
<rect y="61" width="1728" height="370" fill="#FFD6C0"/>
<g clip-path="url(#clip0_16_72)">
<path d="M500.002 429.004H376.598V425.218C376.598 421.931 377.904 418.779 380.229 416.454C382.554 414.13 385.707 412.824 388.995 412.824H487.605C490.893 412.824 494.046 414.13 496.371 416.454C498.696 418.779 500.002 421.931 500.002 425.218V429.004Z" fill="#999999"/>
<path d="M435.412 413.58L439.165 412.069C399.899 314.632 403.681 191.708 436.874 86.2611C440.817 74.0436 441.101 60.9403 437.692 48.5633C434.283 36.1863 427.329 25.0755 417.686 16.5978C398.42 -0.589739 371.859 -4.77678 348.364 5.66958C325.173 15.9826 321.976 33.9464 321.976 51.8228H326.022C326.022 32.7406 330.102 18.2179 350.009 9.36533C372.029 -0.424824 396.928 3.50201 414.992 19.6162C424.049 27.5785 430.581 38.0141 433.783 49.6391C436.985 61.2641 436.718 73.5713 433.015 85.0465C399.439 191.711 395.878 315.48 435.412 413.58Z" fill="#999999"/>
<path d="M325.011 111.484C332.832 111.484 339.172 105.146 339.172 97.3272C339.172 89.5085 332.832 83.1702 325.011 83.1702C317.19 83.1702 310.85 89.5085 310.85 97.3272C310.85 105.146 317.19 111.484 325.011 111.484Z" fill="#E6E6E6"/>
<path d="M303.202 122.007V95.1827H307.374V122.007C308.571 122.491 309.562 123.376 310.177 124.51C310.793 125.644 310.995 126.958 310.748 128.224C310.502 129.491 309.822 130.633 308.826 131.454C307.829 132.275 306.579 132.723 305.288 132.723C303.997 132.723 302.746 132.275 301.75 131.454C300.753 130.633 300.074 129.491 299.827 128.224C299.581 126.958 299.782 125.644 300.398 124.51C301.014 123.376 302.005 122.491 303.202 122.007Z" fill="#E6E6E6"/>
<path d="M283.033 74.5748C283.04 68.4086 285.494 62.4969 289.855 58.1368C294.217 53.7766 300.13 51.324 306.298 51.317H344.735C350.906 51.317 356.823 53.7673 361.186 58.129C365.549 62.4907 368 68.4064 368 74.5748C368 80.7431 365.549 86.6588 361.186 91.0205C356.823 95.3822 350.906 97.8326 344.735 97.8326H306.298C300.13 97.8256 294.217 95.373 289.855 91.0128C285.494 86.6526 283.04 80.741 283.033 74.5748V74.5748Z" fill="#EC5D0F"/>
<path d="M228.877 218.602C232.736 169.242 252.468 145.725 239.833 130.977C227.731 116.85 193.64 119.768 171.747 133.324C112.695 169.887 91.0611 315.613 167.051 386.811C239.262 454.468 376.114 432.799 406.527 377.423C413.623 364.502 419.261 341.851 408.875 328.134C383.09 294.077 289.341 355.763 247.659 317.18C222.957 294.315 226.759 245.69 228.877 218.602Z" fill="#3F3D56"/>
<path d="M274.017 194.08C272.582 194.739 271.462 195.932 270.894 197.405C270.326 198.878 270.356 200.514 270.976 201.965C271.107 202.258 271.262 202.54 271.439 202.807L258.764 219.726L265.089 229.176L279.945 204.123C280.998 203.302 281.749 202.156 282.082 200.864C282.414 199.572 282.31 198.206 281.784 196.979C281.478 196.284 281.039 195.656 280.49 195.131C279.941 194.605 279.295 194.193 278.587 193.918C277.879 193.643 277.124 193.509 276.365 193.526C275.605 193.542 274.856 193.708 274.161 194.014C274.113 194.035 274.064 194.057 274.017 194.08Z" fill="#FFB6B6"/>
<path d="M274.006 223.25C274.836 223.985 272.535 224.893 270.101 223.461C269.405 223.047 269.107 222.874 269.029 222.984C268.833 223.258 269.976 225.276 269.671 229.759C269.483 232.435 265.038 237.466 259.99 242.371C253.166 249.006 245.23 255.405 245.23 255.405L242.444 253.176L213.23 229.759L208.299 222.937C208.751 220.243 209.429 217.592 210.326 215.012C211.562 211.44 213.032 207.954 214.724 204.575C215.632 202.736 216.563 200.984 217.456 199.372L233.108 216.616L246.224 231.058C246.224 231.058 250.043 224.909 253.001 223.234C253.379 222.994 253.808 222.846 254.254 222.804C257.243 222.663 257.423 221.036 253.956 217.492C250.489 213.948 254.864 217.257 257.947 216.303C261.031 215.348 257.947 216.303 258.597 213.916C259.247 211.53 267.894 206.742 267.894 206.742L268.254 207.063L274.789 212.829L276.659 214.48C276.659 214.48 274.617 220.081 274.053 221.263C273.49 222.444 273.185 222.507 274.006 223.25Z" fill="#EC5D0F"/>
<path d="M446.27 331.933L446.588 323.303L413.444 317.969L412.974 330.705L446.27 331.933Z" fill="#FFB6B6"/>
<path d="M440.253 334.531L439.939 320.714L445.848 320.932L455.387 308.158C455.858 307.528 456.518 307.064 457.272 306.834C458.025 306.605 458.832 306.623 459.575 306.885C460.318 307.147 460.957 307.639 461.4 308.29C461.843 308.941 462.067 309.716 462.037 310.503L461.432 326.917L455.483 329.531L461.286 330.851L461.058 337.04L440.253 334.531Z" fill="#2F2E41"/>
<path d="M259.73 335.293L364.71 337.954C364.71 337.954 410.044 340.572 420.681 333.654L431.897 332.239L432.505 315.768C432.505 315.768 425.646 315.818 421.703 313.982C417.759 312.145 420.5 309.897 416.74 312.107C412.981 314.317 413.378 314.583 410.471 313.567C407.564 312.552 274.259 292.239 274.259 292.239L259.73 335.293Z" fill="#2F2E41"/>
<path d="M398.066 328.145L404.171 322.036L383.502 295.589L374.493 304.607L398.066 328.145Z" fill="#FFB6B6"/>
<path d="M391.888 322.83L401.058 312.487L405.241 316.664L420.924 313.786C421.699 313.644 422.499 313.753 423.207 314.097C423.915 314.441 424.495 315.003 424.861 315.7C425.228 316.397 425.361 317.193 425.243 317.971C425.125 318.75 424.761 319.47 424.205 320.027L412.594 331.648L406.455 329.519L409.811 334.433L405.433 338.814L391.888 322.83Z" fill="#2F2E41"/>
<path d="M218.312 277.816L219.356 302.069C220.585 330.62 252.037 347.901 276.426 332.994C276.875 332.719 277.326 332.434 277.779 332.14C277.779 332.14 287.024 329.657 286.744 325.726C286.463 321.795 288.722 319.882 290.721 320.954C292.72 322.026 318.891 284.895 318.891 284.895C318.891 284.895 373.268 312.011 385.263 318.394C385.263 318.394 396.542 300.765 395.724 300.949C394.906 301.134 328.454 254.637 328.454 254.637C328.454 254.637 317.628 243.684 304.199 250.916C303.919 251.978 304.159 252.015 304.159 252.015L259.797 288.152L253.529 276.251L218.312 277.816Z" fill="#2F2E41"/>
<path d="M260.139 247.496C260.054 248.616 259.895 249.73 259.661 250.829C259.342 252.419 258.827 253.965 258.127 255.429C258.127 255.429 258.127 257.064 254.997 262.541C251.867 268.017 255.78 265.67 258.127 269.739C260.475 273.799 258.127 271.929 255.521 274.542C254.771 275.303 254.238 276.25 253.978 277.286C253.718 278.322 253.74 279.409 254.042 280.433C254.042 280.433 220.422 280.457 214.161 278.11C207.9 275.763 206.476 262.541 212.087 261.234C217.69 259.928 210.389 258.629 207.094 255.617C203.799 252.605 210.389 247.676 210.389 247.676C210.389 247.676 207.673 242.989 207.9 227.256C207.932 225.809 208.065 224.366 208.299 222.937C208.751 220.243 209.429 217.592 210.326 215.012C211.562 211.44 213.032 207.954 214.724 204.575C215.632 202.736 216.563 200.984 217.456 199.372C217.596 199.122 217.729 198.879 217.87 198.637C219.569 195.632 221.118 193.176 222.143 191.603C222.934 190.383 223.411 189.694 223.411 189.694L229.109 179.789L248.126 188.701L247.046 203.276L250.325 214.268L251.835 219.33L253.001 223.234L254.801 229.282C254.801 229.282 254.308 229.306 254.895 230.111C257.598 233.704 259.351 237.921 259.99 242.371C260.215 244.07 260.265 245.787 260.139 247.496V247.496Z" fill="#EC5D0F"/>
<path d="M315.058 249.066L314.701 248.951L269.184 234.298L285.957 179.289C286.291 178.193 286.869 177.188 287.649 176.348C288.428 175.509 289.387 174.857 290.455 174.442C291.523 174.027 292.671 173.86 293.812 173.954C294.954 174.047 296.06 174.398 297.046 174.98L326.133 192.16C328.436 193.519 330.187 195.643 331.082 198.161C331.977 200.68 331.958 203.433 331.029 205.939L315.058 249.066Z" fill="#2F2E41"/>
<path d="M315.243 252.564L269.36 237.793L286.133 182.783C286.467 181.688 287.045 180.682 287.824 179.843C288.603 179.003 289.563 178.352 290.631 177.937C291.698 177.522 292.846 177.355 293.988 177.448C295.13 177.541 296.235 177.892 297.222 178.475L327.698 193.686C332.276 196.389 332.169 203.387 330.043 209.128L315.243 252.564Z" fill="#EC5D0F"/>
<path d="M310.649 256.545C309.593 257.141 308.424 257.511 307.217 257.631C306.009 257.751 304.79 257.619 303.637 257.242L274.31 247.801C272.06 247.066 270.186 245.481 269.09 243.383C267.993 241.286 267.76 238.843 268.441 236.577L283.144 188.354C283.438 187.391 283.921 186.496 284.565 185.721C285.21 184.947 286.002 184.309 286.896 183.845C287.791 183.381 288.769 183.1 289.773 183.019C290.777 182.938 291.787 183.058 292.744 183.372L323.136 193.348C324.585 193.824 325.923 194.584 327.072 195.585C328.221 196.586 329.158 197.807 329.827 199.176C330.496 200.545 330.884 202.034 330.968 203.556C331.052 205.077 330.83 206.6 330.315 208.034L314.595 251.849C313.889 253.839 312.488 255.507 310.649 256.545V256.545Z" fill="#3F3D56"/>
<path d="M247.051 179.959C258.652 179.959 268.056 170.557 268.056 158.959C268.056 147.361 258.652 137.96 247.051 137.96C235.449 137.96 226.045 147.361 226.045 158.959C226.045 170.557 235.449 179.959 247.051 179.959Z" fill="#FFB6B6"/>
<path d="M176.019 180.275C177.947 184.01 181.108 186.964 184.965 188.636C186.505 189.337 188.124 189.849 189.786 190.161C190.256 188.298 191.009 186.517 192.017 184.881C191.681 186.725 191.681 188.614 192.017 190.458C194.55 190.665 197.099 190.349 199.504 189.529C201.867 188.726 204.01 187.383 205.763 185.608C207.516 183.832 208.831 181.673 209.603 179.301C211.277 173.735 209.474 167.789 209.332 161.979C209.186 156.169 211.946 149.219 217.716 148.5C222.11 147.951 221.567 148.377 224.725 151.48C220.308 156.385 231.075 178.109 236.853 177.149C240.119 176.606 242.523 174.014 243.169 174.104C246.477 182.203 236.526 193.69 244.419 197.461L243.833 196.686C239.702 189.863 251.926 178.339 247.795 171.516C246.643 169.608 245.446 167.37 246.158 165.258C246.835 163.251 250.26 162.616 250.982 164.443C249.807 160.255 253.087 155.339 257.442 154.912C261.312 154.53 261.089 155.633 264.778 156.639C265.25 155.05 265.929 153.53 266.799 152.119C266.504 153.729 266.468 155.375 266.691 156.996C268.022 157.155 269.368 156.87 270.52 156.186C273.927 154.144 274.028 148.874 271.688 145.666C269.343 142.458 265.416 140.874 261.627 139.675C261.592 131.664 240.031 127.83 236.065 135.277C235.657 129.247 228.743 125.185 222.786 126.209C216.83 127.234 212.131 132.008 209.266 137.33C206.401 142.648 204.979 148.603 202.882 154.267C200.785 159.931 197.788 165.579 192.766 168.94C187.746 172.297 180.284 172.601 176.092 168.251C175.136 170.109 174.631 172.165 174.619 174.254C174.606 176.343 175.086 178.406 176.019 180.275V180.275Z" fill="#2F2E41"/>
<path d="M197.573 276.304C198.007 275.957 198.479 275.658 198.979 275.414C207.019 271.414 232.022 261.03 251.572 261.456C289.189 262.276 337.061 303.778 325.919 331.648C317.442 352.855 275.295 364.92 244.529 355.27C201.428 341.752 184.416 286.791 197.573 276.304Z" fill="#3F3D56"/>
<path d="M41.4111 429.084C29.1196 426.765 18.2394 371.406 42.4226 344.142C50.7082 334.801 61.0433 330.735 74.7909 326.951C153.918 305.174 214.269 325.929 222.379 330.996C230.471 336.052 244.658 412.233 226.517 423.016C216.31 429.084 196.08 432.117 186.057 425.039C171.308 414.623 196.064 387.607 185.045 369.422C172.541 348.786 106.698 341.835 73.6877 362.344C38.4687 384.224 111.114 442.229 41.4111 429.084Z" fill="#F2F2F2"/>
<path d="M123.591 334.961H76.6327C65.0407 323.855 56.7524 313.152 63.3881 304.267C63.3881 301.713 64.4029 299.264 66.2093 297.458C68.0158 295.652 70.4658 294.637 73.0205 294.637H127.203C129.758 294.637 132.208 295.652 134.014 297.458C135.82 299.264 136.835 301.713 136.835 304.267C139.362 314.391 134.848 324.624 123.591 334.961Z" fill="#B2B2B2"/>
<path d="M115.157 282.515C114.712 282.535 114.271 282.418 113.894 282.18C113.517 281.941 113.223 281.593 113.051 281.181C112.879 280.77 112.837 280.316 112.932 279.88C113.027 279.444 113.253 279.048 113.581 278.746L113.73 278.153C113.71 278.106 113.691 278.058 113.671 278.011C113.222 276.951 112.47 276.047 111.509 275.414C110.548 274.78 109.421 274.444 108.27 274.448C107.118 274.452 105.994 274.797 105.038 275.438C104.082 276.079 103.336 276.988 102.895 278.051C101.133 282.294 98.8892 286.545 98.3367 291.032C98.0934 293.015 98.1961 295.025 98.6401 296.973C94.5008 287.947 92.3514 278.136 92.3375 268.205C92.3367 265.714 92.4751 263.224 92.7523 260.747C92.9814 258.717 93.2993 256.702 93.7058 254.7C95.9244 243.842 100.688 233.665 107.605 225.004C110.953 223.178 113.66 220.37 115.362 216.958C115.979 215.732 116.415 214.423 116.656 213.071C116.279 213.121 115.232 207.371 115.517 207.018C114.991 206.22 114.049 205.823 113.474 205.044C110.615 201.169 106.677 201.846 104.621 207.111C100.228 209.327 100.186 213.003 102.881 216.537C104.596 218.786 104.831 221.829 106.336 224.237C106.181 224.435 106.02 224.627 105.865 224.825C103.036 228.462 100.57 232.367 98.5025 236.486C99.0052 231.872 98.4052 227.205 96.7518 222.869C95.0761 218.828 91.9352 215.424 89.1693 211.93C85.847 207.734 79.0343 209.565 78.4489 214.885C78.4432 214.937 78.4377 214.988 78.4323 215.04C78.8432 215.271 79.2453 215.517 79.6388 215.777C80.1331 216.107 80.5162 216.579 80.7377 217.131C80.9593 217.682 81.009 218.288 80.8804 218.868C80.7518 219.448 80.4509 219.976 80.0171 220.383C79.5832 220.789 79.0367 221.055 78.4492 221.145L78.389 221.155C78.5354 222.635 78.7941 224.102 79.1629 225.543C75.6146 239.261 83.2752 244.258 94.2135 244.482C94.4549 244.606 94.6902 244.73 94.9317 244.847C92.8547 250.731 91.5519 256.861 91.056 263.081C90.7753 266.75 90.7919 270.437 91.1056 274.104L91.087 273.974C90.2945 269.896 88.1186 266.217 84.9268 263.557C80.1862 259.664 73.4886 258.231 68.3744 255.101C67.8309 254.753 67.1989 254.566 66.553 254.565C65.9071 254.563 65.2742 254.746 64.729 255.093C64.1838 255.439 63.7489 255.934 63.4758 256.519C63.2027 257.104 63.1026 257.755 63.1875 258.395C63.1943 258.441 63.2013 258.486 63.2084 258.532C63.9708 258.842 64.7131 259.2 65.431 259.602C65.8418 259.834 66.244 260.08 66.6375 260.34C67.1318 260.67 67.5148 261.142 67.7363 261.694C67.9579 262.245 68.0076 262.851 67.879 263.431C67.7504 264.011 67.4495 264.539 67.0157 264.945C66.5819 265.352 66.0354 265.618 65.4478 265.708L65.3876 265.717C65.3443 265.724 65.3071 265.73 65.2639 265.736C66.5665 268.845 68.3948 271.707 70.6687 274.197C72.8874 286.172 82.4166 287.308 92.61 283.821H92.6162C93.7346 288.68 95.355 293.409 97.4515 297.933H114.725C114.787 297.741 114.842 297.543 114.898 297.351C113.299 297.451 111.694 297.356 110.118 297.066C111.4 295.494 112.682 293.91 113.963 292.337C113.992 292.308 114.019 292.277 114.044 292.245C114.694 291.44 115.35 290.642 116 289.837L116 289.836C116.035 287.37 115.751 284.909 115.157 282.515Z" fill="#8E8E8E"/>
<path d="M174.073 332.446C174.359 333.28 174.903 334.001 175.625 334.507C176.348 335.013 177.212 335.277 178.094 335.261L195.32 334.818C196.208 334.801 197.067 334.497 197.768 333.951C198.469 333.405 198.975 332.647 199.209 331.791L201.647 305.731C202.512 306.123 203.454 306.316 204.403 306.297C206.069 306.256 207.649 305.554 208.798 304.347C209.946 303.14 210.567 301.526 210.526 299.861C210.484 298.196 209.782 296.616 208.575 295.468C207.367 294.32 205.753 293.698 204.088 293.74C203.708 293.739 203.33 293.778 202.959 293.858C202.555 293.421 202.065 293.074 201.519 292.839C200.973 292.603 200.384 292.484 199.789 292.49L173.291 293.175C173.071 293.183 172.852 293.21 172.637 293.256C172.056 293.364 171.505 293.595 171.021 293.935C170.536 294.274 170.131 294.712 169.83 295.222C169.53 295.731 169.342 296.298 169.28 296.886C169.217 297.473 169.282 298.067 169.468 298.628L174.073 332.446ZM202.147 303.962L203.882 297.752C204.079 297.035 204.084 296.278 203.895 295.558C203.979 295.558 204.053 295.518 204.138 295.518C205.327 295.494 206.477 295.942 207.336 296.764C208.196 297.586 208.694 298.715 208.722 299.904C208.75 301.093 208.305 302.244 207.485 303.106C206.665 303.967 205.537 304.469 204.348 304.5C203.579 304.524 202.818 304.338 202.147 303.962Z" fill="#B2B2B2"/>
<path d="M172.637 293.256C173.202 296.483 179.549 298.751 187.181 298.357C194.199 298.034 199.937 295.57 200.988 292.65C200.599 292.535 200.195 292.481 199.789 292.49L173.291 293.175C173.071 293.183 172.852 293.21 172.637 293.256V293.256Z" fill="white"/>
<path d="M299.313 224.18C297.736 224.238 296.243 224.909 295.152 226.05C294.061 227.191 293.459 228.713 293.474 230.291C293.482 230.612 293.516 230.931 293.577 231.246L275.37 241.992L277.574 253.147L300.923 235.73C302.211 235.377 303.345 234.608 304.149 233.543C304.953 232.478 305.382 231.177 305.369 229.842C305.354 229.083 305.189 228.334 304.885 227.639C304.58 226.943 304.142 226.314 303.594 225.788C303.047 225.262 302.401 224.848 301.694 224.572C300.986 224.295 300.231 224.16 299.472 224.175C299.419 224.176 299.366 224.178 299.313 224.18Z" fill="#FFB6B6"/>
<path d="M284.398 249.799C283.911 249.146 283.702 248.873 283.591 248.948C283.306 249.12 283.58 251.425 281.575 255.442C278.752 261.084 249.153 269.727 249.153 269.727L245.509 263.057L229.479 233.747L223.954 210.253C223.761 209.434 223.667 208.594 223.675 207.753C228.601 204.287 233.832 201.277 239.304 198.759C241.491 199.999 243.157 201.984 244 204.352L255.034 235.281L259.437 247.63C259.437 247.63 267.204 242.078 270.021 243.097C272.834 244.122 273.634 242.685 271.795 238.081C269.956 233.478 272.716 238.217 275.928 238.518C279.146 238.823 275.928 238.518 277.448 236.564C278.968 234.611 288.795 233.512 288.795 233.512L289.004 233.948L292.812 241.78L293.902 244.03C293.902 244.03 289.865 248.409 288.891 249.281C287.912 250.161 287.61 250.1 288.089 251.101C288.562 252.098 286.09 252.053 284.398 249.799Z" fill="#EC5D0F"/>
</g>
<path d="M887.602 168V166.102H879.305V147.328H892.805V145.219H879.305V127.711H887.25C891.469 127.711 894.258 129.914 895.617 134.32C895.664 134.367 895.688 134.414 895.688 134.461L897.234 139.664H899.273L898.992 125.812H863.836V127.711H869.461V166.102H863.836V168H887.602ZM916.992 166.172H914.391V137.766H901.383V139.594H905.461V162.516C905.461 164.578 904.641 165.75 903 166.031C902.531 166.125 901.992 166.172 901.383 166.172V168H918.68C918.68 166.922 918.375 166.336 917.766 166.242C917.531 166.195 917.273 166.172 916.992 166.172ZM915.023 128.555C915.023 126.492 914.109 124.969 912.281 123.984C911.484 123.516 910.641 123.281 909.75 123.281C907.734 123.281 906.211 124.195 905.18 126.023C904.758 126.82 904.547 127.664 904.547 128.555C904.547 130.617 905.461 132.117 907.289 133.055C908.086 133.477 908.906 133.688 909.75 133.688C911.812 133.688 913.336 132.82 914.32 131.086C914.789 130.289 915.023 129.445 915.023 128.555ZM936.258 166.172H934.5L934.57 148.172C934.898 144.469 936.258 142.031 938.648 140.859C939.305 140.531 939.984 140.367 940.688 140.367C943.359 140.367 944.93 141.938 945.398 145.078C945.492 145.688 945.539 146.32 945.539 146.977V162.516C945.539 164.484 945.023 165.633 943.992 165.961C943.523 166.102 942.961 166.172 942.305 166.172V168H958.547C958.547 166.922 958.242 166.336 957.633 166.242C957.352 166.195 957.07 166.172 956.789 166.172H954.469V148.172C954.469 142.359 952.406 138.727 948.281 137.273C947.156 136.898 945.984 136.711 944.766 136.711C941.344 136.711 938.438 138.07 936.047 140.789C935.344 141.586 934.781 142.406 934.359 143.25L934.008 137.766H921.492V139.594H925.57V162.516C925.57 164.672 924.562 165.867 922.547 166.102C922.219 166.148 921.867 166.172 921.492 166.172V168H937.945C937.945 166.922 937.641 166.336 937.031 166.242C936.797 166.195 936.539 166.172 936.258 166.172ZM986.109 168H998.695C998.695 166.922 998.414 166.312 997.852 166.172C997.617 166.125 997.336 166.102 997.008 166.102H993.773V122.297H978.445V124.125H984.844V139.734C982.453 137.672 979.594 136.641 976.266 136.641C971.812 136.641 968.18 138.352 965.367 141.773C962.93 144.867 961.711 148.758 961.711 153.445C961.711 159.258 963.609 163.547 967.406 166.312C969.562 167.906 971.953 168.703 974.578 168.703C978.938 168.703 982.172 166.852 984.281 163.148C984.609 162.586 984.891 162 985.125 161.391L986.109 168ZM971.344 152.602C971.344 145.758 972.82 141.445 975.773 139.664C976.617 139.195 977.508 138.961 978.445 138.961C981.82 138.961 983.906 141.562 984.703 146.766C984.891 148.172 984.984 149.672 984.984 151.266C984.984 158.297 983.508 162.773 980.555 164.695C979.711 165.211 978.797 165.469 977.812 165.469C974.531 165.469 972.492 162.797 971.695 157.453C971.461 156 971.344 154.383 971.344 152.602ZM1022.6 179.25C1021.76 179.25 1021.08 178.617 1020.56 177.352C1019.91 175.711 1019.32 174.68 1018.8 174.258C1018.2 173.836 1017.49 173.625 1016.7 173.625C1015.01 173.625 1013.93 174.352 1013.46 175.805C1013.37 176.18 1013.32 176.531 1013.32 176.859C1013.32 178.406 1014.26 179.672 1016.13 180.656C1017.45 181.359 1018.97 181.711 1020.7 181.711C1024.64 181.711 1027.9 179.438 1030.48 174.891C1031.46 173.25 1032.4 171.258 1033.29 168.914L1043.84 141.562C1044.63 140.297 1045.41 139.617 1046.16 139.523C1047.19 139.523 1047.75 139.172 1047.84 138.469C1047.89 138.234 1047.91 138 1047.91 137.766H1037.02V139.523H1042.29L1034.62 159.141L1026.12 139.523H1030.41V137.766H1013.88V139.523H1016.84L1030.55 169.477C1028.3 175.055 1026.14 178.219 1024.08 178.969C1023.56 179.156 1023.07 179.25 1022.6 179.25ZM1059.66 152.742C1059.66 146.18 1060.45 141.984 1062.05 140.156C1063.03 139.078 1064.41 138.539 1066.2 138.539C1069.2 138.539 1071.12 140.062 1071.96 143.109C1072.52 145.078 1072.8 148.195 1072.8 152.461C1072.8 159.305 1071.91 163.617 1070.13 165.398C1069.1 166.383 1067.77 166.875 1066.12 166.875C1063.22 166.875 1061.34 165.375 1060.5 162.375C1059.94 160.359 1059.66 157.148 1059.66 152.742ZM1066.55 136.711C1060.78 136.711 1056.35 138.68 1053.26 142.617C1051.1 145.43 1050.02 148.711 1050.02 152.461C1050.02 157.758 1051.85 161.953 1055.51 165.047C1058.41 167.484 1061.88 168.703 1065.91 168.703C1071.45 168.703 1075.78 166.711 1078.92 162.727C1081.27 159.727 1082.44 156.258 1082.44 152.32C1082.44 147.07 1080.59 142.969 1076.88 140.016C1074.02 137.812 1070.58 136.711 1066.55 136.711ZM1120.97 166.172H1118.58V137.766H1106.2V139.594H1109.65L1109.58 157.312C1109.25 160.969 1107.91 163.383 1105.57 164.555C1104.87 164.883 1104.16 165.047 1103.46 165.047C1100.79 165.047 1099.22 163.477 1098.75 160.336C1098.66 159.727 1098.61 159.094 1098.61 158.438V137.766H1085.6V139.594H1089.68V157.242C1089.77 164.836 1093.12 168.656 1099.73 168.703C1103.95 168.703 1107.16 166.828 1109.37 163.078C1109.51 162.797 1109.65 162.516 1109.79 162.234L1110.14 168H1122.66C1122.66 166.969 1122.38 166.383 1121.81 166.242C1121.58 166.195 1121.3 166.172 1120.97 166.172ZM1143.68 166.172H1138.48V150.984C1138.8 146.062 1140 143.062 1142.06 141.984C1142.39 141.844 1142.7 141.773 1142.98 141.773C1143.49 141.773 1144.05 142.312 1144.66 143.391C1145.51 144.891 1146.42 145.828 1147.41 146.203C1147.88 146.344 1148.39 146.414 1148.95 146.414C1150.83 146.414 1152.16 145.523 1152.96 143.742C1153.24 143.133 1153.38 142.5 1153.38 141.844C1153.38 139.5 1152.23 138.023 1149.94 137.414C1149.38 137.273 1148.79 137.203 1148.18 137.203C1145.27 137.203 1142.72 138.352 1140.52 140.648C1139.53 141.773 1138.78 142.992 1138.27 144.305L1137.77 137.766H1125.47V139.594H1129.55V162.516C1129.55 164.578 1128.73 165.75 1127.09 166.031C1126.62 166.125 1126.08 166.172 1125.47 166.172V168H1145.37C1145.37 166.922 1145.06 166.336 1144.45 166.242C1144.22 166.195 1143.96 166.172 1143.68 166.172ZM1189.88 168.703C1194.47 168.703 1198.15 166.969 1200.91 163.5C1203.35 160.453 1204.57 156.586 1204.57 151.898C1204.57 145.805 1202.67 141.422 1198.88 138.75C1196.91 137.391 1194.73 136.711 1192.34 136.711C1187.51 136.758 1183.88 139.148 1181.44 143.883V122.297H1168.5V124.195H1172.51V162.445C1172.51 164.461 1171.73 165.633 1170.19 165.961C1169.67 166.055 1169.11 166.102 1168.5 166.102V168H1179.26L1179.82 163.078C1182.3 166.781 1185.66 168.656 1189.88 168.703ZM1188.89 140.086C1192.92 140.18 1194.94 144.445 1194.94 152.883C1194.89 162.117 1192.71 166.758 1188.4 166.805C1185.35 166.805 1183.29 164.789 1182.21 160.758C1181.7 158.883 1181.44 156.703 1181.44 154.219C1181.44 147.797 1182.8 143.484 1185.52 141.281C1186.55 140.484 1187.67 140.086 1188.89 140.086ZM1218.28 152.742C1218.28 146.18 1219.08 141.984 1220.67 140.156C1221.66 139.078 1223.04 138.539 1224.82 138.539C1227.82 138.539 1229.74 140.062 1230.59 143.109C1231.15 145.078 1231.43 148.195 1231.43 152.461C1231.43 159.305 1230.54 163.617 1228.76 165.398C1227.73 166.383 1226.39 166.875 1224.75 166.875C1221.84 166.875 1219.97 165.375 1219.12 162.375C1218.56 160.359 1218.28 157.148 1218.28 152.742ZM1225.17 136.711C1219.41 136.711 1214.98 138.68 1211.88 142.617C1209.73 145.43 1208.65 148.711 1208.65 152.461C1208.65 157.758 1210.48 161.953 1214.13 165.047C1217.04 167.484 1220.51 168.703 1224.54 168.703C1230.07 168.703 1234.41 166.711 1237.55 162.727C1239.89 159.727 1241.06 156.258 1241.06 152.32C1241.06 147.07 1239.21 142.969 1235.51 140.016C1232.65 137.812 1229.2 136.711 1225.17 136.711ZM1254.91 152.742C1254.91 146.18 1255.71 141.984 1257.3 140.156C1258.29 139.078 1259.67 138.539 1261.45 138.539C1264.45 138.539 1266.38 140.062 1267.22 143.109C1267.78 145.078 1268.06 148.195 1268.06 152.461C1268.06 159.305 1267.17 163.617 1265.39 165.398C1264.36 166.383 1263.02 166.875 1261.38 166.875C1258.48 166.875 1256.6 165.375 1255.76 162.375C1255.2 160.359 1254.91 157.148 1254.91 152.742ZM1261.8 136.711C1256.04 136.711 1251.61 138.68 1248.52 142.617C1246.36 145.43 1245.28 148.711 1245.28 152.461C1245.28 157.758 1247.11 161.953 1250.77 165.047C1253.67 167.484 1257.14 168.703 1261.17 168.703C1266.7 168.703 1271.04 166.711 1274.18 162.727C1276.52 159.727 1277.7 156.258 1277.7 152.32C1277.7 147.07 1275.84 142.969 1272.14 140.016C1269.28 137.812 1265.84 136.711 1261.8 136.711ZM1298.79 166.172H1295.13V155.344L1297.31 153.234L1305.89 168.07L1317.56 168C1317.56 166.969 1317.28 166.383 1316.72 166.242C1316.48 166.195 1316.2 166.172 1315.88 166.172H1314.82L1303.5 147.258L1308.7 142.266C1310.34 140.719 1311.61 139.852 1312.5 139.664C1312.88 139.617 1313.25 139.594 1313.62 139.594C1314.66 139.594 1315.24 139.219 1315.38 138.469C1315.43 138.234 1315.45 138 1315.45 137.766H1303.57V139.594H1308.7L1295.13 152.461V122.297H1280.86V124.125H1286.2V162.516C1286.11 164.953 1284.33 166.172 1280.86 166.172V168H1300.48C1300.48 166.922 1300.17 166.336 1299.56 166.242C1299.33 166.195 1299.07 166.172 1298.79 166.172ZM842.391 253.703C845.812 253.703 847.945 252.461 848.789 249.977C849.07 249.039 849.281 247.844 849.422 246.391L847.594 246.32C847.312 249.555 846.492 251.195 845.133 251.242C844.102 251.148 843.586 249.977 843.586 247.727V233.031C843.586 227.172 840.867 223.562 835.43 222.203C834.023 221.875 832.5 221.711 830.859 221.711C824.484 221.711 820.477 223.094 818.836 225.859C818.414 226.562 818.203 227.312 818.203 228.109C818.203 229.938 819.07 231.086 820.805 231.555C821.227 231.695 821.672 231.766 822.141 231.766C824.156 231.766 825.516 230.781 826.219 228.812C826.312 228.531 826.453 228.062 826.641 227.406C827.156 225.531 827.812 224.359 828.609 223.891C829.125 223.656 829.711 223.539 830.367 223.539C832.57 223.539 833.906 224.875 834.375 227.547C834.562 228.531 834.656 229.703 834.656 231.062V235.633C822.609 235.867 816.562 239.055 816.516 245.195C816.516 249.367 818.344 252.039 822 253.211C823.078 253.539 824.273 253.703 825.586 253.703C829.57 253.703 832.5 252.203 834.375 249.203C834.75 248.594 835.055 247.961 835.289 247.305C836.273 251.336 838.641 253.469 842.391 253.703ZM829.242 250.68C826.898 250.586 825.703 248.5 825.656 244.422C825.656 241.328 826.922 239.312 829.453 238.375C830.812 237.953 832.547 237.695 834.656 237.602V244.422C833.766 247.703 832.336 249.719 830.367 250.469C829.945 250.609 829.57 250.68 829.242 250.68ZM865.945 251.172H864.188L864.258 233.172C864.586 229.469 865.945 227.031 868.336 225.859C868.992 225.531 869.672 225.367 870.375 225.367C873.047 225.367 874.617 226.938 875.086 230.078C875.18 230.688 875.227 231.32 875.227 231.977V247.516C875.227 249.484 874.711 250.633 873.68 250.961C873.211 251.102 872.648 251.172 871.992 251.172V253H888.234C888.234 251.922 887.93 251.336 887.32 251.242C887.039 251.195 886.758 251.172 886.477 251.172H884.156V233.172C884.156 227.359 882.094 223.727 877.969 222.273C876.844 221.898 875.672 221.711 874.453 221.711C871.031 221.711 868.125 223.07 865.734 225.789C865.031 226.586 864.469 227.406 864.047 228.25L863.695 222.766H851.18V224.594H855.258V247.516C855.258 249.672 854.25 250.867 852.234 251.102C851.906 251.148 851.555 251.172 851.18 251.172V253H867.633C867.633 251.922 867.328 251.336 866.719 251.242C866.484 251.195 866.227 251.172 865.945 251.172ZM915.797 253H928.383C928.383 251.922 928.102 251.312 927.539 251.172C927.305 251.125 927.023 251.102 926.695 251.102H923.461V207.297H908.133V209.125H914.531V224.734C912.141 222.672 909.281 221.641 905.953 221.641C901.5 221.641 897.867 223.352 895.055 226.773C892.617 229.867 891.398 233.758 891.398 238.445C891.398 244.258 893.297 248.547 897.094 251.312C899.25 252.906 901.641 253.703 904.266 253.703C908.625 253.703 911.859 251.852 913.969 248.148C914.297 247.586 914.578 247 914.812 246.391L915.797 253ZM901.031 237.602C901.031 230.758 902.508 226.445 905.461 224.664C906.305 224.195 907.195 223.961 908.133 223.961C911.508 223.961 913.594 226.562 914.391 231.766C914.578 233.172 914.672 234.672 914.672 236.266C914.672 243.297 913.195 247.773 910.242 249.695C909.398 250.211 908.484 250.469 907.5 250.469C904.219 250.469 902.18 247.797 901.383 242.453C901.148 241 901.031 239.383 901.031 237.602ZM962.133 251.172H958.617V207.297H944.203V209.125H949.688V247.375C949.688 249.297 948.914 250.469 947.367 250.891C946.57 251.078 945.516 251.172 944.203 251.172V253H963.82C963.82 251.922 963.516 251.336 962.906 251.242C962.672 251.195 962.414 251.172 962.133 251.172ZM976.828 237.742C976.828 231.18 977.625 226.984 979.219 225.156C980.203 224.078 981.586 223.539 983.367 223.539C986.367 223.539 988.289 225.062 989.133 228.109C989.695 230.078 989.977 233.195 989.977 237.461C989.977 244.305 989.086 248.617 987.305 250.398C986.273 251.383 984.938 251.875 983.297 251.875C980.391 251.875 978.516 250.375 977.672 247.375C977.109 245.359 976.828 242.148 976.828 237.742ZM983.719 221.711C977.953 221.711 973.523 223.68 970.43 227.617C968.273 230.43 967.195 233.711 967.195 237.461C967.195 242.758 969.023 246.953 972.68 250.047C975.586 252.484 979.055 253.703 983.086 253.703C988.617 253.703 992.953 251.711 996.094 247.727C998.438 244.727 999.609 241.258 999.609 237.32C999.609 232.07 997.758 227.969 994.055 225.016C991.195 222.812 987.75 221.711 983.719 221.711ZM1013.46 237.742C1013.46 231.18 1014.26 226.984 1015.85 225.156C1016.84 224.078 1018.22 223.539 1020 223.539C1023 223.539 1024.92 225.062 1025.77 228.109C1026.33 230.078 1026.61 233.195 1026.61 237.461C1026.61 244.305 1025.72 248.617 1023.94 250.398C1022.91 251.383 1021.57 251.875 1019.93 251.875C1017.02 251.875 1015.15 250.375 1014.3 247.375C1013.74 245.359 1013.46 242.148 1013.46 237.742ZM1020.35 221.711C1014.59 221.711 1010.16 223.68 1007.06 227.617C1004.91 230.43 1003.83 233.711 1003.83 237.461C1003.83 242.758 1005.66 246.953 1009.31 250.047C1012.22 252.484 1015.69 253.703 1019.72 253.703C1025.25 253.703 1029.59 251.711 1032.73 247.727C1035.07 244.727 1036.24 241.258 1036.24 237.32C1036.24 232.07 1034.39 227.969 1030.69 225.016C1027.83 222.812 1024.38 221.711 1020.35 221.711ZM1052.13 251.734C1055.27 251.734 1057.08 250.609 1057.55 248.359C1057.59 248.031 1057.62 247.727 1057.62 247.445C1057.62 245.055 1056.12 243.062 1053.12 241.469C1052.46 241.094 1051.41 240.602 1049.95 239.992C1046.44 238.445 1044.12 237.016 1042.99 235.703C1041.77 234.297 1041.16 232.633 1041.16 230.711C1041.16 226.727 1043.34 224.031 1047.7 222.625C1049.53 222.016 1051.57 221.711 1053.82 221.711C1057.48 221.711 1060.34 222.367 1062.4 223.68C1062.4 222.273 1062.82 221.5 1063.66 221.359C1063.85 221.312 1064.04 221.289 1064.23 221.289V230.078H1061.98C1061.79 225.812 1059.47 223.656 1055.02 223.609C1052.02 223.609 1050.16 224.594 1049.46 226.562C1049.32 227.031 1049.25 227.5 1049.25 227.969C1049.25 229.984 1050.66 231.695 1053.47 233.102C1054.03 233.43 1054.97 233.875 1056.28 234.438C1059.94 236.078 1062.38 237.578 1063.59 238.938C1065 240.531 1065.7 242.43 1065.7 244.633C1065.7 248.711 1063.59 251.453 1059.38 252.859C1057.64 253.422 1055.7 253.703 1053.54 253.703C1049.41 253.703 1045.95 252.977 1043.13 251.523C1043.13 252.742 1042.83 253.445 1042.22 253.633C1041.94 253.68 1041.61 253.703 1041.23 253.703V243.016H1043.62C1043.72 248.781 1046.55 251.688 1052.13 251.734ZM1085.67 223.539C1088.67 223.633 1090.2 226.188 1090.24 231.203C1090.24 233.406 1089.59 234.766 1088.27 235.281C1087.34 235.609 1085.93 235.727 1084.05 235.633L1079.55 235.422C1079.88 227.641 1081.92 223.68 1085.67 223.539ZM1098.82 245.758L1097.13 245.195C1095.82 248.055 1093.76 250 1090.95 251.031C1089.82 251.453 1088.67 251.664 1087.5 251.664C1083.75 251.664 1081.34 249.273 1080.26 244.492C1079.84 242.523 1079.6 240.18 1079.55 237.461L1086.02 237.672C1093.57 237.906 1097.95 236.711 1099.17 234.086C1099.45 233.43 1099.59 232.703 1099.59 231.906C1099.59 227.922 1097.55 225.016 1093.48 223.188C1091.18 222.203 1088.58 221.711 1085.67 221.711C1080.38 221.711 1076.25 223.516 1073.3 227.125C1071.05 229.938 1069.92 233.43 1069.92 237.602C1069.92 244.398 1072.48 249.133 1077.59 251.805C1080.02 253.07 1082.79 253.703 1085.88 253.703C1091.37 253.703 1095.3 251.781 1097.7 247.938C1098.16 247.234 1098.54 246.508 1098.82 245.758ZM1124.13 264.25C1123.29 264.25 1122.61 263.617 1122.09 262.352C1121.44 260.711 1120.85 259.68 1120.34 259.258C1119.73 258.836 1119.02 258.625 1118.23 258.625C1116.54 258.625 1115.46 259.352 1114.99 260.805C1114.9 261.18 1114.85 261.531 1114.85 261.859C1114.85 263.406 1115.79 264.672 1117.66 265.656C1118.98 266.359 1120.5 266.711 1122.23 266.711C1126.17 266.711 1129.43 264.438 1132.01 259.891C1132.99 258.25 1133.93 256.258 1134.82 253.914L1145.37 226.562C1146.16 225.297 1146.94 224.617 1147.69 224.523C1148.72 224.523 1149.28 224.172 1149.38 223.469C1149.42 223.234 1149.45 223 1149.45 222.766H1138.55V224.523H1143.82L1136.16 244.141L1127.65 224.523H1131.94V222.766H1115.41V224.523H1118.37L1132.08 254.477C1129.83 260.055 1127.67 263.219 1125.61 263.969C1125.09 264.156 1124.6 264.25 1124.13 264.25ZM1161.19 237.742C1161.19 231.18 1161.98 226.984 1163.58 225.156C1164.56 224.078 1165.95 223.539 1167.73 223.539C1170.73 223.539 1172.65 225.062 1173.49 228.109C1174.05 230.078 1174.34 233.195 1174.34 237.461C1174.34 244.305 1173.45 248.617 1171.66 250.398C1170.63 251.383 1169.3 251.875 1167.66 251.875C1164.75 251.875 1162.88 250.375 1162.03 247.375C1161.47 245.359 1161.19 242.148 1161.19 237.742ZM1168.08 221.711C1162.31 221.711 1157.88 223.68 1154.79 227.617C1152.63 230.43 1151.55 233.711 1151.55 237.461C1151.55 242.758 1153.38 246.953 1157.04 250.047C1159.95 252.484 1163.41 253.703 1167.45 253.703C1172.98 253.703 1177.31 251.711 1180.45 247.727C1182.8 244.727 1183.97 241.258 1183.97 237.32C1183.97 232.07 1182.12 227.969 1178.41 225.016C1175.55 222.812 1172.11 221.711 1168.08 221.711ZM1222.5 251.172H1220.11V222.766H1207.73V224.594H1211.18L1211.11 242.312C1210.78 245.969 1209.45 248.383 1207.1 249.555C1206.4 249.883 1205.7 250.047 1204.99 250.047C1202.32 250.047 1200.75 248.477 1200.28 245.336C1200.19 244.727 1200.14 244.094 1200.14 243.438V222.766H1187.13V224.594H1191.21V242.242C1191.3 249.836 1194.66 253.656 1201.27 253.703C1205.48 253.703 1208.7 251.828 1210.9 248.078C1211.04 247.797 1211.18 247.516 1211.32 247.234L1211.67 253H1224.19C1224.19 251.969 1223.91 251.383 1223.34 251.242C1223.11 251.195 1222.83 251.172 1222.5 251.172ZM1245.21 251.172H1240.01V235.984C1240.34 231.062 1241.53 228.062 1243.59 226.984C1243.92 226.844 1244.23 226.773 1244.51 226.773C1245.02 226.773 1245.59 227.312 1246.2 228.391C1247.04 229.891 1247.95 230.828 1248.94 231.203C1249.41 231.344 1249.92 231.414 1250.48 231.414C1252.36 231.414 1253.7 230.523 1254.49 228.742C1254.77 228.133 1254.91 227.5 1254.91 226.844C1254.91 224.5 1253.77 223.023 1251.47 222.414C1250.91 222.273 1250.32 222.203 1249.71 222.203C1246.8 222.203 1244.25 223.352 1242.05 225.648C1241.06 226.773 1240.31 227.992 1239.8 229.305L1239.3 222.766H1227V224.594H1231.08V247.516C1231.08 249.578 1230.26 250.75 1228.62 251.031C1228.15 251.125 1227.61 251.172 1227 251.172V253H1246.9C1246.9 251.922 1246.59 251.336 1245.98 251.242C1245.75 251.195 1245.49 251.172 1245.21 251.172ZM1269.05 251.734C1272.19 251.734 1273.99 250.609 1274.46 248.359C1274.51 248.031 1274.53 247.727 1274.53 247.445C1274.53 245.055 1273.03 243.062 1270.03 241.469C1269.38 241.094 1268.32 240.602 1266.87 239.992C1263.35 238.445 1261.03 237.016 1259.91 235.703C1258.69 234.297 1258.08 232.633 1258.08 230.711C1258.08 226.727 1260.26 224.031 1264.62 222.625C1266.45 222.016 1268.48 221.711 1270.73 221.711C1274.39 221.711 1277.25 222.367 1279.31 223.68C1279.31 222.273 1279.73 221.5 1280.58 221.359C1280.77 221.312 1280.95 221.289 1281.14 221.289V230.078H1278.89C1278.7 225.812 1276.38 223.656 1271.93 223.609C1268.93 223.609 1267.08 224.594 1266.38 226.562C1266.23 227.031 1266.16 227.5 1266.16 227.969C1266.16 229.984 1267.57 231.695 1270.38 233.102C1270.95 233.43 1271.88 233.875 1273.2 234.438C1276.85 236.078 1279.29 237.578 1280.51 238.938C1281.91 240.531 1282.62 242.43 1282.62 244.633C1282.62 248.711 1280.51 251.453 1276.29 252.859C1274.55 253.422 1272.61 253.703 1270.45 253.703C1266.33 253.703 1262.86 252.977 1260.05 251.523C1260.05 252.742 1259.74 253.445 1259.13 253.633C1258.85 253.68 1258.52 253.703 1258.15 253.703V243.016H1260.54C1260.63 248.781 1263.47 251.688 1269.05 251.734ZM1302.59 223.539C1305.59 223.633 1307.11 226.188 1307.16 231.203C1307.16 233.406 1306.5 234.766 1305.19 235.281C1304.25 235.609 1302.84 235.727 1300.97 235.633L1296.47 235.422C1296.8 227.641 1298.84 223.68 1302.59 223.539ZM1315.73 245.758L1314.05 245.195C1312.73 248.055 1310.67 250 1307.86 251.031C1306.73 251.453 1305.59 251.664 1304.41 251.664C1300.66 251.664 1298.25 249.273 1297.17 244.492C1296.75 242.523 1296.52 240.18 1296.47 237.461L1302.94 237.672C1310.48 237.906 1314.87 236.711 1316.09 234.086C1316.37 233.43 1316.51 232.703 1316.51 231.906C1316.51 227.922 1314.47 225.016 1310.39 223.188C1308.09 222.203 1305.49 221.711 1302.59 221.711C1297.29 221.711 1293.16 223.516 1290.21 227.125C1287.96 229.938 1286.84 233.43 1286.84 237.602C1286.84 244.398 1289.39 249.133 1294.5 251.805C1296.94 253.07 1299.7 253.703 1302.8 253.703C1308.28 253.703 1312.22 251.781 1314.61 247.938C1315.08 247.234 1315.45 246.508 1315.73 245.758ZM1337.18 251.172H1333.66V207.297H1319.25V209.125H1324.73V247.375C1324.73 249.297 1323.96 250.469 1322.41 250.891C1321.62 251.078 1320.56 251.172 1319.25 251.172V253H1338.87C1338.87 251.922 1338.56 251.336 1337.95 251.242C1337.72 251.195 1337.46 251.172 1337.18 251.172ZM1361.16 251.172H1356.16V224.664H1364.11V222.766H1356.16V222.414C1356.16 215.336 1356.7 211.117 1357.78 209.758C1358.34 209.102 1359.07 208.773 1359.96 208.773C1361.13 208.773 1362.09 209.664 1362.84 211.445C1363.78 213.602 1364.39 214.867 1364.67 215.242C1365.47 216.133 1366.41 216.602 1367.48 216.648C1369.41 216.648 1370.67 215.898 1371.28 214.398C1371.42 214.023 1371.49 213.625 1371.49 213.203C1371.49 211.141 1370.27 209.5 1367.84 208.281C1366.05 207.391 1363.9 206.945 1361.37 206.945C1355.88 206.945 1351.92 208.914 1349.48 212.852C1347.98 215.289 1347.23 218.289 1347.23 221.852V222.766H1341.54V224.664H1347.23V247.516C1347.14 249.953 1345.36 251.172 1341.89 251.172V253H1362.84C1362.84 251.922 1362.54 251.336 1361.93 251.242C1361.7 251.195 1361.44 251.172 1361.16 251.172ZM1376.13 248.43C1376.13 246.461 1375.24 244.984 1373.46 244C1372.71 243.625 1371.94 243.438 1371.14 243.438C1369.17 243.438 1367.72 244.328 1366.78 246.109C1366.41 246.859 1366.22 247.633 1366.22 248.43C1366.22 250.445 1367.11 251.898 1368.89 252.789C1369.59 253.164 1370.34 253.352 1371.14 253.352C1373.16 253.352 1374.63 252.508 1375.57 250.82C1375.95 250.07 1376.13 249.273 1376.13 248.43Z" fill="#3F3D56"/>
<defs>
<clipPath id="clip0_16_72">
<rect width="582" height="431" fill="white" transform="translate(-27)"/>
</clipPath>
</defs>
</svg>
